/* XPM */
static char *_96467b776fe4a67fb913642e5e85fdbPdbPsN0YIKhHEH61[] = {
/* columns rows colors chars-per-pixel */
"50 50 87 1 ",
"  c None",
". c black",
"X c #010101",
"o c #020202",
"O c gray1",
"+ c #0F0100",
"@ c #0B0B0B",
"# c #181818",
"$ c gray10",
"% c #1B1B1B",
"& c #1D1D1D",
"* c #1E1E1E",
"= c #210300",
"- c #310500",
"; c #222222",
": c gray14",
"> c #2A2A2A",
", c #2D2D2D",
"< c gray18",
"1 c #323232",
"2 c gray20",
"3 c #373737",
"4 c gray22",
"5 c #393939",
"6 c #3A3A3A",
"7 c #3C3C3C",
"8 c gray24",
"9 c #3E3E3E",
"0 c #791700",
"q c #414141",
"w c gray26",
"e c #434343",
"r c #444444",
"t c #464646",
"y c #484848",
"u c #494949",
"i c gray29",
"p c #4B4B4B",
"a c #4C4C4C",
"s c #4E4E4E",
"d c gray31",
"f c gray32",
"g c #535353",
"h c gray33",
"j c #555555",
"k c #565656",
"l c gray34",
"z c #5A5A5A",
"x c #5B5B5B",
"c c gray36",
"v c #5D5D5D",
"b c #5F5F5F",
"n c #606060",
"m c gray38",
"M c #626262",
"N c gray39",
"B c #646464",
"V c #656565",
"C c gray40",
"Z c #676767",
"A c #686868",
"S c DimGray",
"D c #6A6A6A",
"F c gray42",
"G c #6C6C6C",
"H c #6D6D6D",
"J c gray43",
"K c #6F6F6F",
"L c #717171",
"P c #8F1E00",
"I c #D13100",
"U c #D33200",
"Y c #D73300",
"T c #DF3400",
"R c #E93700",
"E c #F13A00",
"W c #FD3E00",
"Q c #FF3E00",
"! c #FF3F00",
"~ c #FF4000",
"^ c #FF4100",
"/ c #FF4200",
"( c #FF4300",
") c #FF4400",
"_ c OrangeRed",
"` c #FF4600",
"' c #FF4700",
/* pixels */
"                                                  ",
"                                                  ",
"                                                  ",
"                                                  ",
"                                                  ",
"                                                  ",
"                                                  ",
"                                                  ",
"                                 ....             ",
"                             .........            ",
"                            ......  ...           ",
"                           ...       ....         ",
"                          ...         ...         ",
"                         ...           ..         ",
"                        ...            ...        ",
"                       ...              ..        ",
"                       ..                .        ",
"                       ..                .        ",
"                       ..                .        ",
"                      ...                .        ",
"                      ..                 .        ",
"                      ..                 .        ",
"                    .....                .        ",
"                    .,f9.                .        ",
"                    .2Bi.                .        ",
"                   ...#...               ...      ",
"                  >idrwrid4              .+.      ",
"                #.wSGSSSGGf@##            .-      ",
"              .9MvMSSSSSSSBvMd.           .P~~Q   ",
"              .iGGSSSBSSSSSGLz.           .0T`~   ",
"              .rSSSSSSSSSSBSGk.           =..I~~  ",
"             *fBSBSSSSBSSBSSSBk2          YRUE~`  ",
"            .:BGSSBSSBSSBSSBSGSw.         ~`~~Q~  ",
"             ;MGSSSSSSSSSSSSSSS9.        ~~~QQ~~  ",
"             ;vGSBBSSSSBSSSSSSB9.         Q~~```  ",
"            .;MGSSSSSBSSBSSBSSS9.         Q~QQQQ  ",
"            .;BGSSSSSBSSSSSSSSSw.        Q'Q      ",
"             *wvSSBSSSSBSSSBSMi,         QQ       ",
"              .wGSSSSSSSBSSSGk.                   ",
"              .iGGSSSBSSSSSGLz.                   ",
"               4kfvSGSGSSGMfzr.                   ",
"                ..4BSBBBBSi...                    ",
"                  :4944449,                       ",
"                   .......                        ",
"                                                  ",
"                                                  ",
"                                                  ",
"                                                  ",
"                                                  ",
"                                                  "
};
