/* XPM */
static char *_9938c14b56749d0dd89fb7f3d3785a8jexEmaluAV9DmY9C[] = {
/* columns rows colors chars-per-pixel */
"50 50 143 2 ",
"   c None",
".  c #010000",
"X  c #0D0805",
"o  c #0D0A08",
"O  c #071317",
"+  c #171310",
"@  c #191513",
"#  c #1F1917",
"$  c #171C1E",
"%  c #1D1C1B",
"&  c #211E1D",
"*  c #27221F",
"=  c #1C2427",
"-  c #1F272B",
";  c #242221",
":  c #2B2623",
">  c #2E2825",
",  c #212729",
"<  c #23282A",
"1  c #2B2B2C",
"2  c #332D29",
"3  c #36312D",
"4  c #3A332F",
"5  c #292E31",
"6  c #333434",
"7  c #3B3531",
"8  c #3E3936",
"9  c #343739",
"0  c #363A3B",
"q  c #3C3D3D",
"w  c #453631",
"e  c #423A36",
"r  c #443E3A",
"t  c #4B3F3A",
"y  c #47403C",
"u  c #49413D",
"i  c #424343",
"p  c #4B4542",
"a  c #4E4845",
"s  c #474748",
"d  c #474848",
"f  c #4B4A4A",
"g  c #504742",
"h  c #524946",
"j  c #544D4A",
"k  c #584E4A",
"l  c #54514F",
"z  c #5A514C",
"x  c #4F5152",
"c  c #555556",
"v  c #595553",
"b  c #5E5956",
"n  c #565758",
"m  c #5C5B5B",
"M  c #625751",
"N  c #635954",
"B  c #655E5B",
"V  c #6A5E5A",
"C  c #6D625B",
"Z  c #72665F",
"A  c #666361",
"S  c #6F6A67",
"D  c #6F6C6A",
"F  c #736760",
"G  c #756A64",
"H  c #796D66",
"J  c #736E6B",
"K  c #7B6F69",
"L  c #77716E",
"P  c #7C716B",
"I  c #7C7572",
"U  c #7E7875",
"Y  c #81756F",
"T  c #837771",
"R  c #837A75",
"E  c #8A7E77",
"W  c #857E7A",
"Q  c #8B7F79",
"!  c #8D817B",
"~  c #92857F",
"^  c gray53",
"/  c #8C8581",
"(  c #8D8D8D",
")  c #938781",
"_  c #948A85",
"`  c #9A8C85",
"'  c #948C88",
"]  c #9D8F88",
"[  c #9D918A",
"{  c #949493",
"}  c #9D9691",
"|  c #9D9D9C",
" . c #A2948D",
".. c #A19691",
"X. c #A59993",
"o. c #AA9C94",
"O. c #A09F9F",
"+. c #AB9F99",
"@. c #ADA19B",
"#. c #B2A59E",
"$. c #A5A5A5",
"%. c #ACA5A0",
"&. c #B2A6A0",
"*. c #B6AAA3",
"=. c #BAADA6",
"-. c #B7AEA9",
";. c #BBAFA8",
":. c #BEB2AC",
">. c #B3B3B3",
",. c #BFB6B1",
"<. c #BEBEBE",
"1. c #C2B4AC",
"2. c #C1B7B1",
"3. c #C6BBB5",
"4. c #C9BDB6",
"5. c #C7BEB8",
"6. c #CABEB8",
"7. c #D0BFB6",
"8. c #CFC0B7",
"9. c #CDC1BB",
"0. c #D1C0B7",
"q. c #D3C3BA",
"w. c #D8C7BE",
"e. c #D9C8BF",
"r. c #C4C4C4",
"t. c #C7C8C8",
"y. c #CCCCCC",
"u. c #D4C7C0",
"i. c #D6CAC3",
"p. c #D9CCC5",
"a. c #DDCFC8",
"s. c #DED3CC",
"d. c #D1D1D1",
"f. c #E1CFC5",
"g. c #E3D1C7",
"h. c #E0D5CE",
"j. c #E2D7D0",
"k. c #E6DAD3",
"l. c #EADED7",
"z. c #EADFD8",
"x. c #EFE0D7",
"c. c #ECE1D9",
"v. c #F0E0D8",
/* pixels */
"              x m n c c d x n n n n n c n n n n n c n n n n n n n n n n c d c c c m x               ",
"          s.i.5.} 0 c i s -.2.,.,.,.,.,.2.2.,.2.,.,.2.2.,.,.,.,.,.,.,.,.,.v q v 9 ' 5.p.a.          ",
"        4.v.l.c.%.- m 5 ' l.k.k.k.k.k.k.j.k.k.k.k.k.k.k.k.k.k.k.k.k.k.k.l.O., m < { c.c.v.7.        ",
"      0.g.p.s.j.' O f i 3.j.s.s.s.s.s.s.s.s.g.s.s.s.s.s.s.s.s.s.s.s.s.s.j.9.f f $ ! s.s.u.f.q.      ",
"    0.g.7.e.h.h.J . . L h.h.h.h.j.s.j.j.+.X.p.~ 3.1.~ p.X.@.s.h.s.j.s.j.s.j.! . . n a.h.w.0.g.7.    ",
"  0.g.q.7.w.h.s.-.@.%.9.k.h.h.h.j.s.s.j.) b a.w X.X.u a.v _ j.h.j.s.j.s.s.j.u.#.@.-.s.h.w.7.q.g.q.  ",
"4.g.q.0.4.w.h.j.j.k.k.j.g.h.g.h.s.s.s.j._ b p.u } } u a.l ] j.s.s.s.s.s.s.s.j.l.k.l.h.h.u.4.q.q.f.6.",
"w.3.5.3.3.w.q.4.q.7.q.7.q.q.7.q.q.q.q.w.~ l 4.u _ ~ h 4.a ~ w.q.q.q.q.q.q.w.0.7.9.6.4.w.q.5.3.5.3.9.",
"5.5.4.4.3.u.6.Q #.w.7.7.q.7.q.q.0.0.0.0.~ Y 7.C o.X.C 1.Y ~ q.0.7.7.7.7.7.w.7.7.7.) o.i.u.4.4.6.6.4.",
"3.6.3.6.3.u.q.=.K &.w.7.0.q.0.0.0.w.0.0.#.#.1.o.1.1.X.7.#.#.q.0.w.7.w.7.7.7.w.7.` Q 7.u.u.4.4.5.6.3.",
"6.3.6.6.3.q.q.w.=.H *.w.7.7.7.q.0.0.0.w.0.0.q.q.0.0.q.q.0.w.0.0.7.7.7.w.7.w.7.` Q 7.q.7.9.3.5.5.6.4.",
"6.6.4.4.4.u.q.7.w.1.K #.w.7.q.7.0.0.0.0.0.0.0.q.0.0.0.q.0.0.0.q.w.7.7.7.7.q.` Q 7.w.6.q.u.4.4.5.6.4.",
"4.3.4.4.4.q.u.7.7.w.=.H 1.7.7.q.w.0.0.0.0.q.0.0.0.0.q.0.0.q.0.0.7.w.7.7.7.] Q 7.7.7.7.w.u.3.3.6.6.4.",
"6.6.6.6.3.u.q.7.7.7.w.1.1.0.7.7.0.0.0.0.0.0.0.0.0.0.0.0.0.0.0.0.7.7.7.7.7.1.4.w.7.q.7.w.u.3.5.6.6.4.",
"4.3.6.3.4.9.q.7.7.q.7.w.w.7.w.q.w.0.w.w.q.q.w.q.e.w.w.q.q.q.w.w.7.w.7.w.7.e.w.7.w.7.7.7.u.3.3.6.6.4.",
"4.6.6.4.4.u.q.7.q.7.q.7.7.w.#.o.o.o.o.o.o.o.o.o.o.o.o.o.o.o.o.o.o.o.o.*.w.7.7.7.7.7.7.u.u.3.6.6.6.4.",
"4.6.4.6.5.q.q.0.q.0.q.q.q.#.Z G Y C C C C C C C C C C C C C C C C C G F #.q.0.0.0.0.0.w.u.3.3.5.4.4.",
"6.6.3.6.5.w.q.0.0.0.0.q.#.Z Y Z w w w > e 1 8 y e r y 2 7 6 3 y r e G Y G #.w.0.0.q.7.q.u.4.4.6.6.4.",
"3.6.5.3.5.9.q.0.0.q.0.q.` H G 2 7 4 : . 2 . > 7 4 4 7 . * & X 4 4 7 2 F G ] 0.0.0.0.0.q.q.3.4.6.6.4.",
"6.4.5.3.5.q.0.0.0.0.q.q.] H z 4 u k e * u % y h a a h ; 7 6 > h k u 6 z G  .q.0.q.0.7.w.u.4.5.6.4.4.",
"4.6.4.6.3.9.q.8.q.q.0.q.] G N 4 C { O.| | | | | | | | | | | | @.( A w N G [ w.q.0.0.7.q.q.5.4.5.6.4.",
"3.6.6.3.9.q.i.w.0.0.q.q.] H M v | >.r.y.y.y.y.y.y.y.y.y.y.y.y.<.<.{ v M H [ q.7.0.q.w.w.q.9.6.5.6.4.",
"4.4.4.6.o.8.o.o.w.0.0.q.] H M v >.>.O.t.| | | | O.| | | | | r.{ <.>.v M H ] q.7.0.w. .#.9.X.5.5.4.4.",
"3.6.9.6.~ 4.!  .w.0.q.w.] H M v >.d.y.y.r.r.t.t.t.t.r.t.t.t.y.y.y.>.z M G  .w.q.0.e.T  .5.' 6.6.6.4.",
"=.=.=.=.;.:.1.1.1.=.1.1.~ H M v >.y.y.r.$.$.$.$.$.$.$.$.$.$.<.y.y.>.v M H ) 1.;.=.1.1.1.1.;.=.=.=.=.",
"6.6.9.6.4.9.4.4.0.0.4.0.] H M v >.y.y.t.r.r.r.r.<.r.r.r.r.r.y.y.y.>.v M H ] q.7.7.7.4.4.9.3.6.6.6.6.",
"3.4.6.6.W 4.P ~ e.q.0.w. .H M v >.y.t.r.$.$.$.$.$.$.$.$.$.$.r.t.y.>.l N G [ w.7.7.u.G _ 5.W 6.6.6.4.",
"6.6.5.4.&.q.*.=.q.0.0.q.] Z M v >.>.| y.<.<.<.r.<.<.r.<.<.<.y.{ <.>.v M H ] q.7.7.7.*.;.9.*.6.5.6.4.",
"4.4.5.4.9.9.p.q.0.0.q.q.] H N j ( >.t.y.d.d.d.d.d.d.d.d.d.d.y.t.>.( j N H ] e.7.7.7.i.e.u.5.4.5.6.4.",
"6.6.4.4.3.q.q.7.q.0.0.w.] Z V 2 v ^ { ( ( ( ( ( ( ( ( ( ( ( ( { ^ l 3 V G  .7.e.w.7.7.7.u.3.4.5.6.4.",
"4.4.5.6.5.u.q.0.q.0.0.0. .G N r e 7 > . 2 . > 4 3 3 3 o * & @ 4 4 e e M H ] 7.7.w.7.7.e.u.3.4.6.6.4.",
"4.5.3.5.3.q.q.0.0.q.0.q.` Z P g y u 4 . 7 . 4 u r y y . 2 : @ y t t g Y Z ] i.7.7.7.7.7.u.4.4.6.4.4.",
"4.4.4.4.5.u.7.7.7.7.7.w.1.H H K k z h 4 h 7 h z z z z 8 u u e z z z P H Y 1.0.0.0.0.0.w.q.3.8.8.6.4.",
"4.6.4.5.3.7.u.7.7.q.w.7.w.1.K Z G Z Z Z Z Z Z Z Z Z Z Z Z Z Z Z Z G Z Y 1.w.7.0.0.0.0.q.q.4.3.5.4.4.",
"4.6.4.4.3.u.q.7.q.q.7.7.7.w.3.=.=.=.=.=.=.=.=.=.=.=.=.;.=.=.;.=.=.=.*.3.w.7.0.0.0.0.0.q.i.3.3.9.6.4.",
"4.4.4.5.4.u.w.7.7.q.7.u.7.7.w.w.w.w.w.w.w.w.w.w.w.w.w.w.w.w.w.w.w.w.e.q.7.w.w.0.0.q.0.q.q.3.3.5.6.4.",
"4.5.4.4.4.u.q.7.7.7.q.#.1.q.7.7.7.7.7.7.7.7.7.7.7.7.0.0.0.0.0.0.0.0.0.0.q.#.1.e.7.q.q.q.u.5.3.5.6.4.",
"4.4.4.6.3.u.q.7.7.w.#.Y 1.w.7.7.w.7.7.q.q.q.7.w.q.0.0.0.0.q.0.q.0.0.0.0.w.@.Y 1.w.q.7.q.u.5.3.5.6.4.",
"4.4.4.4.3.u.7.7.w.#.Y 1.w.7.q.q.7.q.q.7.7.7.7.7.0.0.0.q.0.0.0.0.0.0.q.q.0.w.X.Y 1.w.6.q.q.4.6.5.6.4.",
"6.4.5.4.3.u.q.u.o.Y 1.w.7.7.q.7.q.7.q.7.q.w.7.7.q.q.q.0.w.0.0.q.0.q.0.0.0.0.e.X.Y 3.q.q.u.4.6.6.6.4.",
"5.4.4.4.3.q.q.+.Y 1.w.7.0.0.0.q.7.q.7.7.1.1.7.1.7.1.1.7.1.1.q.0.q.q.7.q.q.7.q.u.X.Y 1.w.q.3.4.4.6.4.",
"6.6.4.4.3.w.4.Q 1.q.7.0.0.0.0.0.7.7.7.w.` T 3.F o.o.Z 3.T ) q.7.7.7.7.7.7.7.7.7.w. . .q.u.3.4.4.6.3.",
"u.3.3.4.3.u.w.q.q.w.q.w.q.w.q.w.q.u.w.i.~ k 7.t ` ~ g 4.g ~ u.w.u.w.q.q.w.q.q.q.w.w.7.u.u.3.4.4.4.5.",
"+.&.o.o.X.%.2.1.1.1.1.1.:.:.:.1.;.1.1.2.Q h ;.h Q E k 1.u ~ 2.1.;.1.2.;.1.2.2.2.1.1.2.1.%.X.o.o.*.@.",
"  ..#. . .o.&.&.W J L ' *.&.&.&.&.&.&.*.Q h &.k T I v #.p Q *.&.&.&.&.&.&.*.} K J R #.&.X.[ ..@. .  ",
"    ..#. .+.*.*.A . < B &.*.*.*.*.*.*.*.) Q #.T  . .T #.Q _ *.*.*.=.*.*.*.*.J = . v &.*.+...#.X.    ",
"      X.+.+.*.*.I < a i ] =.&.&.&.&.&.&.+.#.&.+.#.#.+.#.@.+.&.#.&.&.&.&.*...s f 1 J &.*.+.#.X.      ",
"        ..1.:.,._ 0 c 0 J ;.-.-.=.;.;.;.;.-.;.;.-.;.;.;.;.:.=.=.-.=.=.=.:.I 9 c 0 W 1.1.1. .        ",
"            +.[ U d c s q ) ` ' ' ' ' ' ' ' ' ' ' ' _ ' ' _ ' ' ' ' _ ' _ s s l s J ] %.            ",
"              = 9 i i i 6 , < < , , < < < < < < < < < < < < < , < < < < , 6 i i i 9 =               "
};
