/* XPM */
static char *_6acdc76ff1f4359dd76c3e3e249369aIJ5Ar4Cz38I5pDLq[] = {
/* columns rows colors chars-per-pixel */
"50 50 154 2 ",
"   c gray14",
".  c #386F00",
"X  c #497500",
"o  c #0D2F42",
"O  c #0D3A4E",
"+  c #1B3B4B",
"@  c #153C50",
"#  c #273E50",
"$  c #334E5F",
"%  c #2B4C60",
"&  c #395264",
"*  c #494C4C",
"=  c #5B5C5B",
"-  c #67615D",
";  c #496171",
":  c #4C6679",
">  c #4A687A",
",  c #586B79",
"<  c #616465",
"1  c #64656B",
"2  c #6A6C6C",
"3  c #6C777C",
"4  c #747474",
"5  c #787677",
"6  c #767A7B",
"7  c #7A7B7B",
"8  c #6BB400",
"9  c #6DB800",
"0  c #70B701",
"q  c #6FAC39",
"w  c #71AF31",
"e  c #76BB33",
"r  c #7CC52F",
"t  c #6F9C50",
"y  c #6F9558",
"u  c #719C55",
"i  c #6FA24A",
"p  c #76A556",
"a  c #708F60",
"s  c #739664",
"d  c #77926B",
"f  c #798E74",
"g  c #82CB35",
"h  c #82A276",
"j  c #8DDB40",
"k  c #90E143",
"l  c #9DEF59",
"z  c #A1F35E",
"x  c #A4F565",
"c  c #A6F668",
"v  c #A8F96B",
"b  c #5E7A8D",
"n  c #687784",
"m  c #697A84",
"M  c #627C8E",
"N  c #7C7F82",
"B  c #637D91",
"V  c #7D8182",
"C  c #678091",
"Z  c #688193",
"A  c #6F8A9D",
"S  c #758996",
"D  c #728DA1",
"F  c #7790A3",
"G  c #7992A4",
"H  c #7E97A9",
"J  c #838484",
"K  c #85878A",
"L  c #868A8C",
"P  c #8B8C8C",
"I  c #839381",
"U  c #878D90",
"Y  c #8A8E91",
"T  c #8E9193",
"R  c #949493",
"E  c #909995",
"W  c #999897",
"Q  c #929799",
"!  c #939A9D",
"~  c #9B9D9D",
"^  c #8CA388",
"/  c #819BAD",
"(  c #969FA4",
")  c #819CB1",
"_  c #87A2AE",
"`  c #97A2A6",
"'  c #9CA2A4",
"]  c #9BA9A0",
"[  c #9EA5A9",
"{  c #8AA3B7",
"}  c #8CA5B9",
"|  c #92AABE",
" . c #A4A5A5",
".. c #A3A7A9",
"X. c #A4AAAC",
"o. c #ACACAC",
"O. c #B0B0AF",
"+. c #A6ADB2",
"@. c #AAACB5",
"#. c #ABB3B6",
"$. c #ADB4B9",
"%. c #B3B2B1",
"&. c #B1B7BE",
"*. c #B6B9B9",
"=. c #BDBCBC",
"-. c #C1C1BF",
";. c #94ADC1",
":. c #99B4C2",
">. c #B4B7C1",
",. c #BABDC9",
"<. c #A4C0CE",
"1. c #B8C1C6",
"2. c #BBC4C9",
"3. c #BFC8CD",
"4. c #ABC5D3",
"5. c #B7D2E0",
"6. c #B9D5E2",
"7. c #C5C6C5",
"8. c #C8C7C6",
"9. c #C6C8C7",
"0. c #C9C9C7",
"q. c #C0C3CF",
"w. c #C5C9CB",
"e. c #CBCBC9",
"r. c #D1D0CD",
"t. c #C5CCD4",
"y. c #C8CFD6",
"u. c #CCCFDD",
"i. c #CBD5DA",
"p. c #CFD9DE",
"a. c #D5D4D3",
"s. c #D1D8DD",
"d. c #DDDCDB",
"f. c #C5DFEC",
"g. c #D1D6E2",
"h. c #D3DAE4",
"j. c #D7E1E6",
"k. c #DCE3EB",
"l. c #DFE9EF",
"z. c #CFE8F4",
"x. c #D6ECF9",
"c. c #DDF1FC",
"v. c #E4E3E2",
"b. c #EBEBEB",
"n. c #E4ECF4",
"m. c #E6F0F6",
"M. c #EAF2F7",
"N. c #E5F2FA",
"B. c #EAF4FA",
"V. c #EEF9FF",
"C. c #F3F3F2",
"Z. c #F1F7FA",
"A. c #F3FBFE",
"S. c #FFFFFF",
/* pixels */
"S.S.S.S.S.S.S.S.S.S.S.S.S.S.S.S.S.S.S.S.S.S.S.S.S.S.S.S.S.S.S.S.S.S.S.S.S.S.S.S.S.S.S.S.S.S.S.S.S.S.",
"S.S.S.S.S.S.S.S.S.S.S.S.S.S.S.S.S.S.S.S.S.S.S.S.S.S.S.S.S.S.S.S.S.S.S.S.S.S.S.S.S.S.S.S.S.S.S.S.S.S.",
"S.S.S.S.S.S.S.S.S.S.S.S.S.S.S.S.S.S.S.S.S.S.S.S.S.S.S.S.S.S.S.S.S.S.S.S.S.S.S.S.S.S.S.S.S.S.S.S.S.S.",
"S.S.S.S.S.S.S.S.S.S.S.S.S.S.S.S.S.S.S.S.S.S.S.S.S.S.S.S.S.S.S.S.S.S.S.S.S.S.S.S.S.S.S.S.S.S.S.S.S.S.",
"S.S.S.S.S.S.S.S.S.S.S.S.S.S.S.S.S.S.S.S.S.S.S.S.S.S.S.S.S.S.S.S.S.S.S.S.S.S.S.S.S.S.S.S.S.S.S.S.S.S.",
"S.S.S.S.S.S.S.S.S.S.S.S.S.S.S.S.S.S.S.S.S.S.S.S.S.S.S.S.S.S.S.S.S.S.S.S.S.S.S.S.S.S.S.S.S.S.S.S.S.S.",
"S.S.S.S.S.S.S.S.S.S.S.S.S.S.S.S.S.S.S.S.S.S.S.S.A.S.A.S.S.S.S.S.S.S.S.S.S.S.S.S.S.S.S.S.S.S.S.S.S.S.",
"S.S.S.S.S.S.S.S.S.S.S.S.S.S.S.S.S.S.A.Z.B.B.N.m.N.m.m.B.B.B.Z.A.S.S.S.S.S.S.S.S.S.S.S.S.S.S.S.S.S.S.",
"S.S.S.S.S.S.S.S.S.S.S.S.S.S.S.A.B.B.B.B.B.B.B.B.B.B.B.B.B.B.B.B.B.B.A.S.S.S.S.S.S.S.S.S.S.S.S.S.S.S.",
"S.S.S.S.S.S.S.S.S.S.S.S.S.A.M.B.B.B.B.B.B.B.B.B.B.B.B.B.B.B.B.B.B.B.B.B.Z.S.S.S.S.S.S.S.S.S.S.S.S.S.",
"S.S.S.S.S.S.S.S.S.S.S.S.B.B.B.B.B.B.B.B.B.B.B.B.B.B.B.B.B.B.B.B.B.B.B.B.B.B.A.S.S.S.S.S.S.S.S.S.S.S.",
"S.S.S.S.S.S.S.S.S.S.Z.N.B.B.B.B.B.B.B.B.B.B.B.B.B.B.B.B.B.B.B.B.B.B.B.B.B.B.B.Z.S.S.S.S.S.S.S.S.S.S.",
"S.S.S.S.S.S.S.S.S.B.B.B.B.B.B.B.B.B.B.B.B.B.B.B.B.B.B.B.B.B.B.B.B.B.B.B.B.B.B.N.B.S.S.S.S.S.S.S.S.S.",
"S.S.S.S.S.S.S.S.B.B.B.B.B.B.B.B.B.B.B.B.B.B.B.B.M.N.B.B.B.B.B.B.B.B.B.B.B.B.B.B.B.B.S.S.S.S.S.S.S.S.",
"S.S.S.S.S.S.S.B.B.B.B.B.B.B.B.B.B.B.B.B.B.B.B.B.A.A.B.B.B.B.B.B.B.B.B.B.B.B.B.B.B.B.N.S.S.S.S.S.S.S.",
"S.S.S.S.S.S.B.B.B.B.B.B.B.B.B.B.B.B.B.B.B.m.V.V.1.$.m.A.B.B.B.B.B.M.B.B.B.B.B.B.B.B.N.M.S.S.S.S.S.S.",
"S.S.S.S.S.V.B.B.B.B.B.B.B.B.B.B.B.B.B.B.M.A.l.Y =.9.K s.A.M.B.B.B.B.B.B.B.B.B.B.B.B.B.B.M.S.S.S.S.S.",
"S.S.S.S.Z.B.B.B.B.B.B.B.B.B.B.B.B.B.B.B.A.2.J v.S.S.C.P $.V.V.N.B.B.B.B.B.B.B.B.B.B.B.B.B.Z.S.S.S.S.",
"S.S.S.S.B.B.B.B.B.V.B.B.B.B.B.B.B.M.V.N.!  .S.S.o.~ C.S.*.P l.A.m.B.B.B.B.B.B.B.B.B.B.B.B.B.S.S.S.S.",
"S.S.S.Z.B.B.B.B.B.B.B.B.B.B.B.B.B.A.i.V a.S.d.4 | <.6 e.S.v.J 1.A.B.m.B.B.B.B.B.B.B.B.B.B.N.M.S.S.S.",
"S.S.S.N.B.B.B.B.B.B.B.B.B.B.m.V.V.X.R C.S.%.C 6.c.N.f.S ~ S.S. .Q n.Z.B.B.B.B.B.B.B.B.B.B.B.B.S.S.S.",
"S.S.Z.B.B.B.B.B.B.B.B.B.B.M.A.j.K 7.S.C.K _ z.B.B.B.B.x.| f v.S.a.h u.Z.B.B.B.B.B.B.B.B.B.B.B.Z.S.S.",
"S.S.B.B.B.B.B.B.B.B.B.B.B.A.*.P b.S.e.3 4.N.B.B.B.B.B.B.N.5.m *.S.Z.W X.B.V.N.B.B.B.B.B.B.B.B.B.S.S.",
"S.Z.B.B.B.B.B.B.B.B.B.B.m.! O.S.A.~ S f.N.M.B.m.B.B.B.N.M.M.z./ P C.S.7.L k.V.B.B.B.B.B.B.B.B.B.Z.S.",
"S.Z.N.B.B.B.B.B.B.B.B.B.U - O. .J = ( ~ ~ ~ ~ ~ ~ ~ ~ ~ ~ ~ ~ ` 2 4  .%.5 2 m.B.B.B.B.B.B.B.B.B.B.S.",
"S.B.B.B.B.B.B.B.M.B.V.n.~ A.Z.M.Z.S.Z.Z.Z.Z.Z.Z.Z.Z.Z.Z.A.Z.A.Z.S.A.M.M.S.o.h.V.B.B.B.B.B.B.B.B.B.S.",
"S.B.B.B.B.B.B.B.M.N.V.p.6 $.#.#.$.X.( ` ' ` +.#.#.$.$.X.` ` ' ` [ #.#.#.&.V 2.V.B.B.B.B.B.B.B.B.N.S.",
"A.B.B.B.B.B.V.*.j.V.V.#.L X.' ` X.6 @ > > O 7 X.( ( ..T o > ; % < o.( (  .Q Q V.B.B.$.l.B.B.B.B.B.Z.",
"Z.B.B.B.B.B.V.* 1.A.N.M. .P -.=.5 $ C C M Z $ 7 =.=.R + M M M C ; = *.-.~ U m.B.B.m.  t.V.B.B.B.B.Z.",
"Z.N.B.B.B.V.j.X ] V.m.A.3.-.S.A. .C H F G H b o.S.S.7., / G F H D L C.S.a.&.A.m.A.g.. #.A.B.B.B.M.B.",
"Z.B.B.B.N.A.,.0 h n.B.A.1.8.S.S.X.F | } } ;.D %.S.S.e.M :.} } | ) Y S.S.d.+.A.m.V.>.9 ^ B.B.B.B.N.B.",
"Z.B.B.B.B.A.' j p h.V.A.1.9.S.S.o.D | } { | A o.S.S.e.M | { } } / Y S.S.d.+.A.m.V.E k p k.B.B.B.B.Z.",
"Z.B.B.B.B.B.I l e q.V.A.2.7.S.S.o.A ;.{ { ;.A O.S.S.e.M | } } | / U S.S.d.+.A.V.m.d z q i.V.B.B.B.B.",
"Z.B.B.B.B.n.s c r $.V.V.2.9.S.S.o.A | { { | A O.S.S.e.M | { } | / U S.S.d.+.A.B.j.t v e ,.A.N.B.B.Z.",
"Z.N.B.B.V.k.t c j ..B.A.2.8.S.S.o.A | { { | A O.S.S.0.M | | { } ) Y S.S.d.+.A.V.g.i v r $.V.M.B.N.Z.",
"S.B.B.B.B.k.u x g +.Z.Z.1.7.S.S.o.D | } { ;.A o.S.S.8.M | { } | / L S.S.d.+.V.V.h.i v r >.A.B.B.B.A.",
"S.B.B.B.B.B.f x e ,.A.A.3.e.S.S.o.F | { { | D %.S.S.r.M ;.{ } | ) Y S.S.v.$.A.B.n.a c w t.A.B.B.M.S.",
"S.B.B.B.M.V.@.8 y k.V.n.Q ~ 7.7.K n | ;.;.| n P 7.7.~ , } ;.;.| S 5 =.7.o.J k.B.B.[ 9 d n.B.B.N.B.S.",
"S.Z.B.B.B.B.B.5 2.A.B.L N X.! ! +.4 & Z Z $ 7 X.! ! [ Y # B B : = +.! ( ( Q 1 n.B.m.1 y.B.B.B.N.Z.S.",
"S.S.N.B.B.N.A.+.h.A.*. .y.7.0.w.7.w.7.7.7.7.9.9.9.w.9.9.8.8.8.8.9.9.9.9.0.e.%.X.A.Z.X.l.A.B.M.B.A.S.",
"S.S.M.B.B.m.A.' p.A.X.s.S.A.A.A.Z.A.A.A.A.A.A.A.A.A.A.A.A.A.A.Z.A.A.A.Z.A.A.n.~ B.B.Q k.B.m.B.B.S.S.",
"b.o.o. ... .o.P ~ o.P R ' ' ' ' (  . .' ~ ~ ' ~ ~ ~ ( ~ ~ (  . .'  .'  .'  .~ P X.X.P ~ o.X.X.o.o.d.",
"S.C.C.S.A.S.A.S.S.A.S.S.S.C.A.S.C.S.S.A.A.C.S.C.Z.S.C.S.C.S.A.S.A.S.C.S.A.S.A.S.S.A.S.S.A.S.S.C.A.S.",
"S.S.S.S.S.S.S.S.S.S.S.S.S.S.S.S.S.S.S.S.S.S.S.S.S.S.S.S.S.S.S.S.S.S.S.S.S.S.S.S.S.S.S.S.S.S.S.S.S.S.",
"S.S.S.S.S.S.S.S.S.S.S.S.S.S.S.S.S.S.S.S.S.S.S.S.S.S.S.S.S.S.S.S.S.S.S.S.S.S.S.S.S.S.S.S.S.S.S.S.S.S.",
"S.S.S.S.S.S.S.S.S.S.S.S.S.S.S.S.S.S.S.S.S.S.S.S.S.S.S.S.S.S.S.S.S.S.S.S.S.S.S.S.S.S.S.S.S.S.S.S.S.S.",
"S.S.S.S.S.S.S.S.S.S.S.S.S.S.S.S.S.S.S.S.S.S.S.S.S.S.S.S.S.S.S.S.S.S.S.S.S.S.S.S.S.S.S.S.S.S.S.S.S.S.",
"S.S.S.S.S.S.S.S.S.S.S.S.S.S.S.S.S.S.S.S.S.S.S.S.S.S.S.S.S.S.S.S.S.S.S.S.S.S.S.S.S.S.S.S.S.S.S.S.S.S.",
"S.S.S.S.S.S.S.S.S.S.S.S.S.S.S.S.S.S.S.S.S.S.S.S.S.S.S.S.S.S.S.S.S.S.S.S.S.S.S.S.S.S.S.S.S.S.S.S.S.S.",
"S.S.S.S.S.S.S.S.S.S.S.S.S.S.S.S.S.S.S.S.S.S.S.S.S.S.S.S.S.S.S.S.S.S.S.S.S.S.S.S.S.S.S.S.S.S.S.S.S.S."
};
