/* XPM */
static char *_896c2409fdd46c3da3b2bae0574d795zYEU3sJ3yFxLzcFX[] = {
/* columns rows colors chars-per-pixel */
"50 50 193 2 ",
"   c None",
".  c #000000",
"X  c #00060C",
"o  c #04090C",
"O  c #050B0A",
"+  c #130204",
"@  c #1B0000",
"#  c #1B0B0B",
"$  c #020C16",
"%  c #000E1A",
"&  c #000015",
"*  c #0A1319",
"=  c #11171A",
"-  c #131A1D",
";  c #250303",
":  c #260C0E",
">  c #2A130F",
",  c #2E1A16",
"<  c #2C1F1A",
"1  c #351B19",
"2  c #3B1E1B",
"3  c #311D16",
"4  c #3E221E",
"5  c #000124",
"6  c #001525",
"7  c #011A2B",
"8  c #031825",
"9  c #161E22",
"0  c #121C28",
"q  c #001C32",
"w  c #001E38",
"e  c #211E29",
"r  c #0E232B",
"t  c #1B2125",
"y  c #1C252B",
"u  c #1F282F",
"i  c #14232F",
"p  c #002433",
"a  c #06283B",
"s  c #1A2630",
"d  c #1D3039",
"f  c #20292E",
"g  c #2D2225",
"h  c #232D33",
"j  c #262F3B",
"k  c #263136",
"l  c #263239",
"z  c #29343C",
"x  c #2C383F",
"c  c #323335",
"v  c #392C2D",
"b  c #401E00",
"n  c #43271E",
"m  c #663400",
"M  c #452A22",
"N  c #4A2D25",
"B  c #4E3027",
"V  c #4C3329",
"C  c #403523",
"Z  c #54362B",
"A  c #543A2C",
"S  c #5A3A2E",
"D  c #5D3F32",
"F  c #583632",
"G  c #7A373E",
"H  c #5C4338",
"J  c #644335",
"K  c #66493A",
"L  c #6B4B3F",
"P  c #714B34",
"I  c #7B543E",
"U  c #003041",
"Y  c #133846",
"T  c #2D3B43",
"R  c #2B3740",
"E  c #313E46",
"W  c #3A3C41",
"Q  c #313F48",
"!  c #2F434E",
"~  c #35434D",
"^  c #384148",
"/  c #374651",
"(  c #384751",
")  c #3A4A55",
"_  c #3D4E59",
"`  c #3F515D",
"'  c #404D57",
"]  c #414F59",
"[  c #41525D",
"{  c #49555E",
"}  c #5A5959",
"|  c #6B4F47",
" . c #695244",
".. c #735645",
"X. c #775946",
"o. c #7C5D4A",
"O. c #775847",
"+. c #77605D",
"@. c #445663",
"#. c #465966",
"$. c #475B68",
"%. c #4A5E6B",
"&. c #4D606F",
"*. c #4E6371",
"=. c #516675",
"-. c #536877",
";. c #54697A",
":. c gray38",
">. c #840000",
",. c #824D20",
"<. c #923945",
"1. c #B84D42",
"2. c #A35855",
"3. c #84624E",
"4. c #8C6348",
"5. c #92664C",
"6. c #896752",
"7. c #8B6A54",
"8. c #8D6B5A",
"9. c #806053",
"0. c #926E5A",
"q. c #926A57",
"w. c #95735C",
"e. c #9B765E",
"r. c #A5755C",
"t. c #9A7764",
"y. c #A47A64",
"u. c #A27A6B",
"i. c #C47D67",
"p. c #E86C69",
"a. c #AF836C",
"s. c #AC8067",
"d. c #BC8268",
"f. c #A28272",
"g. c #B28671",
"h. c #B58D76",
"j. c #BD8F77",
"k. c #BF957C",
"l. c #C8856D",
"z. c #D48E75",
"x. c #C99678",
"c. c #D49E7C",
"v. c #596F80",
"b. c #787982",
"n. c #718F93",
"m. c #77AAB2",
"M. c #8B9C9E",
"N. c #8A858C",
"B. c #A28C84",
"V. c #B6978F",
"C. c #A59A98",
"Z. c #95AAAC",
"A. c #81B6BC",
"S. c #AAA7AA",
"D. c #A1B6B9",
"F. c #D09E80",
"G. c #C69881",
"H. c #D3A289",
"J. c #DEAB8F",
"K. c #CAA495",
"L. c #D2AE9F",
"P. c #DBB29C",
"I. c #E3AD8E",
"U. c #ECB596",
"Y. c #EDB799",
"T. c #E2B196",
"R. c #F2BC9D",
"E. c #CBAFA5",
"W. c #D0B2A8",
"Q. c #CBB4AC",
"!. c #EDBBA2",
"~. c #E3BDBA",
"^. c #EFC1AB",
"/. c #F5C6AF",
"(. c #E7C0B6",
"). c #F5CDBC",
"_. c #FCCFBB",
"`. c #FACCB7",
"'. c #9FB3C2",
"]. c #88C5CD",
"[. c #B9CED5",
"{. c #ACC5C8",
"}. c #C5C5CE",
"|. c #D0CFD1",
" X c #EECEC0",
".X c #F5D2C3",
"XX c #F9D6CA",
"oX c #FBD7CA",
"OX c #FFE1D3",
"+X c #FFE6D9",
"@X c #DDE0E1",
"#X c #C7E4E8",
"$X c #E4E6E8",
/* pixels */
"                                                                                                    ",
"                                        # : D O.A : . .                                             ",
"                                      : ; H 0.7.H @ A ..Z +                                         ",
"                                    > ..7.0.e.7.o.o.w.7.J 3                                         ",
"                                  O n 4.3.3.t.X.7.y.w.K 1 B , .                                     ",
"                                  + N N O.w...o.e.7...D Z S S Z ,                                   ",
"                                . : S + ..K H 7.X...x.t.@ J S S 4                                   ",
"                              . , Z N 3.m I h.y.8.J.R.q.; J Z S n                                   ",
"                              . n | . Q.}.b.c.R.x.4.F.t.@ J A N 1                                   ",
"                              . n | . |.}.N.P./.S.D.(.5.. D S N 2                                   ",
"                                1 2 u..XXX^.`.OXC.$XOX,.h.7.. M 1                                   ",
"                                g . L.OXXX XP..XXXXX!.x.U.t.. 2 #                                   ",
"                                    y.`.V.G 2.E..X!.I.Y.J.... 1 +                                   ",
"                                    . y.G.i.p.<.x.R.Y.H.|   < .                                     ",
"                              z z l ^ a t.g.i.l.u.h.h.+.5 @ .                                       ",
"                            l ) ( T ) ~ h j  .3.H j g ( ) t ) h                                     ",
"                          x _ ( _ T O j . A.m.. ].n.. z E z [ %.z             Z   v H               ",
"                      . ~ [ ) ) ~ T . h . [.{.. #XZ.. k z z _ $.#.T         b i.V.z.l.I             ",
"                    l [ *.` z T - u ^ W . Z.M.. D.n.. l T k [ $.@.#.T h z T 0 F ~.1.m 2.V           ",
"                  y _ %.[ ~ R T T Q 7 . . . . c . s t T ) ~ T @.%.@.~ T Q Q W y.~.S.S.0 .           ",
"                  ~ *.&.#.) _ _ [ d B.W.E.K.X.p c - h ) ( _ t u @.%.~ Q Q ! W w.$X@XC.e.n           ",
"                  R #.@.[ ) ) ] p 3.).+X).R.g.e E ~ ( ) ( _ u   t h u u y h r   } +.  P             ",
"                    - * = y f t . 9.H.T.U.g.G.e.5 { ) ) ( ) u                                       ",
"                              . p f.q.j.U.u.g.8.w [ ) ) ( _ y                                       ",
"                              . R ^ & t.8.F v Y ' ) ) ) ( _ y                                       ",
"                              . z _ ] U p d ~ ] ( ) ( ) ( _ y                                       ",
"                              . z _ / ] ] _ ) ) ) ) ( _ ) _ u                                       ",
"                              . R _ ~ ) ) ) ) _ ) ] ( ~ ~ / y                                       ",
"                              . j T h Q ~ Q E Q Q Q Q T T T =                                       ",
"                                y Q / T h T / ~ ( Q %.*.*.=.h                                       ",
"                              l ~ ( / ( z #.v.-.;.;.;.%.=.;.z                                       ",
"                              Q ) ~ ~ / Q ( &.;.-.-.-.=.&.-.z                                       ",
"                            z ~ / ~ / ~ ( ~ z %.;.;.;.-.=.&.@.j                                     ",
"                          z ( ( ~ / ~ ( z y t h $.=.-.-.;.-.-.Q                                     ",
"                        t T ( ~ / ~ ( / l       . &.;.;.-.-.;.*.T                                   ",
"                        E ( ~ ( ~ ( ~ l           ( ;.;.-.-.-.;.z                                   ",
"                        z / ~ ~ / ^ h               E =.;.-.-.;./ 9                                 ",
"                      k ~ ~ ~ ( T f                 . @.;.=.-.#.( h                                 ",
"                      T ) ~ / ( z =                   j _ _ _ ~ ~ ~ u                               ",
"                      T ( ~ ~ ( E                     . z ~ ~ ~ / ~ h                               ",
"                      l ~ ( ~ ( E =                     * T ) ~ / ~ ~ 9                             ",
"                      = l T ~ ~ k                       O ~ ) ~ / ~ / t                             ",
"                      t f t k h                           h ~ / ~ / ( t                             ",
"                      - - t y t                           . E ( ~ ~ ( t                             ",
"                    . X % = t =                             y ~ ) / ) h                             ",
"                  $ 7 7 7 % % X                             o T Q T T h                             ",
"                  % 7 7 8 X .                               . 9 8 6 7 i $                           ",
"                    .   .                                     X $ 7 q 7 6 X                         ",
"                                                                  . X X X                           ",
"                                                                                                    "
};
